<?xml version="1.0" encoding="UTF-8" standalone="no"?>
<!-- Created with Inkscape (http://www.inkscape.org/) -->

<svg
   width="77.830513mm"
   height="77.830513mm"
   viewBox="0 0 77.830513 77.830513"
   version="1.1"
   id="svg693"
   xmlns:inkscape="http://www.inkscape.org/namespaces/inkscape"
   xmlns:sodipodi="http://sodipodi.sourceforge.net/DTD/sodipodi-0.dtd"
   xmlns:xlink="http://www.w3.org/1999/xlink"
   xmlns="http://www.w3.org/2000/svg"
   xmlns:svg="http://www.w3.org/2000/svg"
   xmlns:rdf="http://www.w3.org/1999/02/22-rdf-syntax-ns#"
   xmlns:cc="http://creativecommons.org/ns#"
   xmlns:dc="http://purl.org/dc/elements/1.1/">
  <defs
     id="defs687">
    <radialGradient
       r="7.2744594"
       fy="85.79026"
       fx="-25.123335"
       cy="85.79026"
       cx="-25.123335"
       gradientTransform="matrix(0.79524407,0,0,0.77333064,-73.32154,8.5222628)"
       gradientUnits="userSpaceOnUse"
       id="radialGradient6680-1-0-1"
       xlink:href="#linearGradient6676"
       inkscape:collect="always" />
    <linearGradient
       id="linearGradient6676"
       inkscape:collect="always">
      <stop
         id="stop6672"
         offset="0"
         style="stop-color:#ff3428;stop-opacity:0.58823532" />
      <stop
         id="stop6674"
         offset="1"
         style="stop-color:#ff3428;stop-opacity:0" />
    </linearGradient>
    <radialGradient
       r="7.2744594"
       fy="85.79026"
       fx="-25.123335"
       cy="85.79026"
       cx="-25.123335"
       gradientTransform="matrix(0.79524407,0,0,0.77333064,-101.82416,8.5970448)"
       gradientUnits="userSpaceOnUse"
       id="radialGradient6680-3-6"
       xlink:href="#linearGradient6676"
       inkscape:collect="always" />
    <linearGradient
       gradientUnits="userSpaceOnUse"
       y2="95.147964"
       x2="-144.35515"
       y1="97.772141"
       x1="-142.0074"
       id="linearGradient6103-5-8-15-4"
       xlink:href="#linearGradient6101"
       inkscape:collect="always"
       gradientTransform="matrix(0.66918236,0,0,0.66918236,211.01234,0.85272481)" />
    <linearGradient
       id="linearGradient6101"
       inkscape:collect="always">
      <stop
         id="stop6097"
         offset="0"
         style="stop-color:#000000;stop-opacity:1;" />
      <stop
         id="stop6099"
         offset="1"
         style="stop-color:#000000;stop-opacity:0.79899496" />
    </linearGradient>
    <linearGradient
       gradientUnits="userSpaceOnUse"
       y2="95.147964"
       x2="-144.35515"
       y1="97.772141"
       x1="-142.0074"
       id="linearGradient6103-8-4-2"
       xlink:href="#linearGradient6101"
       inkscape:collect="always"
       gradientTransform="matrix(0.66918236,0,0,0.66918236,194.4633,0.55408481)" />
  </defs>
  <sodipodi:namedview
     id="base"
     pagecolor="#ffffff"
     bordercolor="#666666"
     borderopacity="1.0"
     inkscape:pageopacity="0.0"
     inkscape:pageshadow="2"
     inkscape:zoom="2"
     inkscape:cx="154.5"
     inkscape:cy="173.75"
     inkscape:document-units="mm"
     inkscape:current-layer="svg693"
     showgrid="false"
     inkscape:window-width="1920"
     inkscape:window-height="1094"
     inkscape:window-x="-11"
     inkscape:window-y="-11"
     inkscape:window-maximized="1"
     width="100mm"
     inkscape:showpageshadow="2"
     inkscape:pagecheckerboard="0"
     inkscape:deskcolor="#d1d1d1" />
  <metadata
     id="metadata690">
    <rdf:RDF>
      <cc:Work
         rdf:about="">
        <dc:format>image/svg+xml</dc:format>
        <dc:type
           rdf:resource="http://purl.org/dc/dcmitype/StillImage" />
      </cc:Work>
    </rdf:RDF>
  </metadata>
  <g
     inkscape:label="Layer 1"
     inkscape:groupmode="layer"
     id="layer1"
     transform="translate(-101.71071,-17.24545)">
    <g
       id="g4547"
       transform="translate(33.070968,-16.671706)"
       inkscape:export-xdpi="300"
       inkscape:export-ydpi="300">
      <path
         style="display:inline;fill:#f7d6a3;fill-opacity:1;stroke:#000000;stroke-width:0.296233px;stroke-linecap:butt;stroke-linejoin:miter;stroke-opacity:1;enable-background:new"
         d="m 115.04378,101.88907 c 4.25763,-8.629186 18.68256,-18.683865 18.68256,-18.683865 0,0 -1.29642,-1.749661 1.26638,-2.619079 2.21474,-0.751282 6.07802,-0.24724 7.1122,2.801419 0.49596,1.462101 -2.89914,1.73496 -5.41648,2.932081 1.03984,1.660958 -19.36916,14.141124 -21.64468,15.569444 z"
         id="path4926-7"
         inkscape:connector-curvature="0" />
      <path
         style="display:inline;fill:#0064ff;fill-opacity:1;stroke:#000000;stroke-width:0.296233px;stroke-linecap:butt;stroke-linejoin:miter;stroke-opacity:1;enable-background:new"
         d="m 114.73998,102.62419 4.75602,-7.545864 10.30762,-9.386742 3.81094,4.701021 z"
         id="path6556"
         inkscape:connector-curvature="0" />
      <path
         d="m 94.954648,96.928661 -9.198405,14.788759 h 6.003768 l 2.493904,-6.31124 z"
         style="display:inline;fill:#0064ff;stroke:#000000;stroke-width:0.296233px;enable-background:new"
         id="path100" />
      <path
         d="m 119.09323,96.474425 c -7.93262,0.147201 -8.20891,2.775159 -12.35067,2.852539 -3.90451,0.0728 -4.73463,-2.578524 -11.787912,-2.398303 l -0.700733,8.477519 -0.948779,6.31124 h 27.733704 l -1.01957,-6.3717 z"
         style="display:inline;fill:#ffffff;stroke:#000000;stroke-width:0.296233px;enable-background:new"
         id="path99" />
      <path
         style="display:inline;fill:#f7d6a3;fill-opacity:1;stroke:#000000;stroke-width:0.279905;stroke-linecap:butt;stroke-linejoin:miter;stroke-miterlimit:4;stroke-dasharray:none;stroke-opacity:1;enable-background:new"
         d="m 131.85586,66.915066 c 0.25587,-0.09492 0.51167,-0.189817 0.75195,-0.407973 0.24029,-0.218156 0.46525,-0.559755 0.56937,-0.921775 0.10413,-0.362021 0.0868,-0.761361 0.0131,-1.088862 -0.0738,-0.327501 -0.21177,-0.606614 -0.38256,-0.784908 -0.17078,-0.178293 -0.37813,-0.263364 -0.55967,-0.298362 -0.18154,-0.035 -0.33418,-0.02021 -0.50701,0.08214 -0.17283,0.102355 -0.37015,0.29793 -0.56466,0.49072"
         id="path6023-3-9-2"
         inkscape:connector-curvature="0" />
      <path
         style="display:inline;opacity:1;fill:#f7d6a3;fill-opacity:1;stroke:#000000;stroke-width:0.250613;stroke-miterlimit:4;stroke-dasharray:none;stroke-opacity:1;enable-background:new"
         d="m 120.1431,48.480326 c -0.008,-0.008 -0.018,-0.014 -0.0266,-0.02 -0.86964,0.36262 -1.73944,0.72548 -2.91662,1.07738 -0.59368,0.1774 -1.26472,0.35232 -2.05222,0.523 -0.78752,0.1708 -1.69172,0.33754 -2.75056,0.49876 -2.11766,0.3224 -4.85448,0.6228 -7.54292,0.89274 -2.68848,0.26994 -5.32854,0.50908 -7.25194,0.70876 -1.9234,0.1996 -3.12978,0.3596 -3.97772,0.4999 -0.83402,0.1378 -1.31486,0.25638 -1.7965,0.37488 -2.4365,2.71172 -4.2976,5.94324 -5.28708,9.45054 -4.95502,14.225161 4.7313,32.427699 20.4447,33.441358 13.91588,1.317581 25.4558,-12.07362 24.98074,-25.450537 0.1336,-7.402841 -3.38778,-14.928901 -8.99342,-19.840701 -0.46774,-0.141 -0.93608,-0.28164 -1.34404,-0.43046 -0.43746,-0.1596 -0.8101,-0.32782 -1.05418,-0.51264 -0.2441,-0.1848 -0.35908,-0.388 -0.40962,-0.59884 -0.0482,-0.20136 -0.0348,-0.40968 -0.0222,-0.61444 z"
         inkscape:connector-curvature="0"
         id="path7610" />
      <path
         style="display:inline;opacity:1;fill:#261008;fill-opacity:1;stroke:#000000;stroke-width:0.250613;stroke-miterlimit:4;stroke-dasharray:none;stroke-opacity:1;enable-background:new"
         d="m 120.1431,48.480326 c -0.012,0.20476 -0.0262,0.413079 0.022,0.61446 0.0504,0.21082 0.1656,0.41402 0.40962,0.598819 0.24408,0.184801 0.61672,0.35306 1.05419,0.51264 0.40795,0.148801 0.8763,0.28946 1.34402,0.430461 -0.89593,-0.785041 -1.83303,-1.51702 -2.82981,-2.15638 z"
         id="path7607"
         inkscape:connector-curvature="0" />
      <path
         style="display:inline;opacity:1;fill:#261008;fill-opacity:1;stroke:#000000;stroke-width:0.250613;stroke-miterlimit:4;stroke-dasharray:none;stroke-opacity:1;enable-background:new"
         d="m 107.78986,45.126325 c -6.13664,0.2918 -11.87218,3.358101 -15.96186,7.909741 0.48164,-0.1184 0.9625,-0.23694 1.79648,-0.3749 0.84798,-0.1404 2.05436,-0.300221 3.97774,-0.499901 1.92338,-0.199599 4.56346,-0.438819 7.25192,-0.70876 2.68844,-0.269939 5.42528,-0.570339 7.54294,-0.892739 1.05883,-0.1612 1.96304,-0.32806 2.75056,-0.49876 0.78752,-0.170601 1.45852,-0.34556 2.05223,-0.523021 1.17713,-0.351879 2.04695,-0.714739 2.9166,-1.077339 -3.06779,-1.961461 -6.57341,-3.194921 -10.35657,-3.332021 -0.66008,-0.033 -1.31722,-0.0332 -1.97004,-0.004 z"
         id="path7400-1"
         inkscape:connector-curvature="0" />
      <circle
         style="display:inline;opacity:1;fill:url(#linearGradient6103-8-4-2);fill-opacity:1;stroke:#000000;stroke-width:0.167296;stroke-miterlimit:4;stroke-dasharray:none;stroke-opacity:1;enable-background:new"
         id="path6083-1-7-7"
         cx="98.682938"
         cy="65.073715"
         r="1.1789869" />
      <circle
         style="display:inline;opacity:1;fill:url(#linearGradient6103-5-8-15-4);fill-opacity:1;stroke:#000000;stroke-width:0.167296;stroke-miterlimit:4;stroke-dasharray:none;stroke-opacity:1;enable-background:new"
         id="path6083-6-6-6-0"
         cx="115.23203"
         cy="65.372368"
         r="1.1789869" />
      <path
         style="display:inline;fill:none;stroke:#000000;stroke-width:0.501887;stroke-linecap:butt;stroke-linejoin:miter;stroke-miterlimit:4;stroke-dasharray:none;stroke-opacity:1;enable-background:new"
         d="m 107.51921,70.497427 c -0.35774,-0.640935 -0.71545,-1.281836 -1.16248,-1.304263 -0.44703,-0.02243 -0.98339,0.573525 -1.1475,1.162533 -0.16411,0.589008 0.0444,1.169844 0.37246,1.56501 0.32805,0.395166 0.77504,0.603767 1.2221,0.812399"
         id="path6137-8-3-7"
         inkscape:connector-curvature="0"
         sodipodi:nodetypes="ccccc" />
      <path
         style="display:inline;fill:none;stroke:#000000;stroke-width:0.501887;stroke-linecap:butt;stroke-linejoin:miter;stroke-miterlimit:4;stroke-dasharray:none;stroke-opacity:1;enable-background:new"
         d="m 98.11608,60.326326 c 0,0 1.3414,-1.87792 2.36978,-0.4024"
         id="path6143-7-4-5"
         inkscape:connector-curvature="0" />
      <path
         style="display:inline;fill:none;stroke:#000000;stroke-width:0.501887;stroke-linecap:butt;stroke-linejoin:miter;stroke-miterlimit:4;stroke-dasharray:none;stroke-opacity:1;enable-background:new"
         d="m 117.56624,61.533566 c 0,0 -0.80484,-2.23564 -2.6828,-0.7154"
         id="path6145-6-5-2"
         inkscape:connector-curvature="0" />
      <ellipse
         style="display:inline;opacity:1;fill:url(#radialGradient6680-3-6);fill-opacity:1;stroke:#000000;stroke-width:0;stroke-linecap:round;stroke-linejoin:miter;stroke-miterlimit:4;stroke-dasharray:none;stroke-opacity:1;enable-background:new"
         id="path6670-5-1"
         cx="-121.80396"
         cy="74.941284"
         rx="5.6855664"
         ry="5.5261583"
         transform="scale(-1,1)" />
      <ellipse
         style="display:inline;opacity:1;fill:url(#radialGradient6680-1-0-1);fill-opacity:1;stroke:#000000;stroke-width:0;stroke-linecap:round;stroke-linejoin:miter;stroke-miterlimit:4;stroke-dasharray:none;stroke-opacity:1;enable-background:new"
         id="path6670-9-6-3"
         cx="-93.301186"
         cy="74.866463"
         rx="5.6855664"
         ry="5.5261583"
         transform="scale(-1,1)" />
      <g
         style="display:inline;enable-background:new"
         transform="matrix(-0.65260421,0,0,0.51228781,120.12048,35.374845)"
         id="g6668-2-8">
        <g
           id="g6690-7-9">
          <path
             style="display:inline;fill:#feeeff;fill-opacity:1;stroke:#000000;stroke-width:0.158138px;stroke-linecap:butt;stroke-linejoin:miter;stroke-opacity:1"
             d="M 6.6878622,83.596954 C 6.9724922,103.86624 35.813752,105.20654 35.441664,83.757149 28.971014,95.412767 14.114736,95.278485 6.6878622,83.596954 Z"
             id="path6037-9-3-1"
             inkscape:connector-curvature="0"
             sodipodi:nodetypes="ccc" />
          <path
             style="display:inline;fill:none;stroke:#000000;stroke-width:0.158138px;stroke-linecap:butt;stroke-linejoin:miter;stroke-opacity:1"
             d="M 35.441509,83.756962 C 32.702059,99.406826 11.220327,100.0862 6.6876684,83.597202"
             id="path6037-6-0-9-3"
             inkscape:connector-curvature="0"
             sodipodi:nodetypes="cc" />
          <path
             style="display:inline;fill:none;stroke:#000000;stroke-width:0.158138px;stroke-linecap:butt;stroke-linejoin:miter;stroke-opacity:1"
             d="M 9.8616948,87.504873 7.9859484,90.221472"
             id="path6069-4-4-5"
             inkscape:connector-curvature="0"
             sodipodi:nodetypes="cc" />
          <path
             style="display:inline;fill:none;stroke:#000000;stroke-width:0.158138px;stroke-linecap:butt;stroke-linejoin:miter;stroke-opacity:1"
             d="m 13.703001,90.358877 -2.122522,5.045525"
             id="path6071-9-7-5"
             inkscape:connector-curvature="0"
             sodipodi:nodetypes="cc" />
          <path
             style="display:inline;fill:none;stroke:#000000;stroke-width:0.158138px;stroke-linecap:butt;stroke-linejoin:miter;stroke-opacity:1"
             d="m 18.520853,92.133433 -1.451144,6.463649"
             id="path6073-8-4-1"
             inkscape:connector-curvature="0"
             sodipodi:nodetypes="cc" />
          <path
             style="display:inline;fill:none;stroke:#000000;stroke-width:0.158138px;stroke-linecap:butt;stroke-linejoin:miter;stroke-opacity:1"
             d="m 23.796067,92.258137 0.666375,6.805622"
             id="path6075-7-5-1"
             inkscape:connector-curvature="0"
             sodipodi:nodetypes="cc" />
          <path
             style="display:inline;fill:none;stroke:#000000;stroke-width:0.158138px;stroke-linecap:butt;stroke-linejoin:miter;stroke-opacity:1"
             d="m 28.698981,90.61308 2.749158,4.715072"
             id="path6077-1-4-7"
             inkscape:connector-curvature="0"
             sodipodi:nodetypes="cc" />
          <path
             style="display:inline;fill:none;stroke:#000000;stroke-width:0.158138px;stroke-linecap:butt;stroke-linejoin:miter;stroke-opacity:1"
             d="m 32.357585,87.877547 2.215894,2.157885"
             id="path6079-8-0-9"
             inkscape:connector-curvature="0"
             sodipodi:nodetypes="cc" />
        </g>
      </g>
      <path
         style="display:inline;fill:#261008;fill-opacity:1;stroke:#000000;stroke-width:0.296233px;stroke-linecap:butt;stroke-linejoin:miter;stroke-opacity:1;enable-background:new"
         d="m 120.14183,48.451606 c -2.19208,-1.583788 -4.43997,-3.207894 -8.0028,-3.768288 -3.56282,-0.560394 -8.46846,-0.07715 -12.08272,1.489955 -3.614261,1.567103 -5.93627,4.217995 -8.25867,6.869333"
         id="path7591"
         inkscape:connector-curvature="0"
         sodipodi:nodetypes="cccc" />
      <path
         style="display:inline;fill:none;stroke:#000000;stroke-width:0.0649652;stroke-linecap:butt;stroke-linejoin:miter;stroke-miterlimit:4;stroke-dasharray:none;stroke-opacity:1;enable-background:new"
         d="m 132.1644,64.177166 c 0,0 -0.48604,0.26166 -0.53924,0.696399"
         id="path6165-8-0-7"
         inkscape:connector-curvature="0"
         sodipodi:nodetypes="cc" />
      <path
         style="display:inline;fill:none;stroke:#000000;stroke-width:0.0649652;stroke-linecap:butt;stroke-linejoin:miter;stroke-miterlimit:4;stroke-dasharray:none;stroke-opacity:1;enable-background:new"
         d="m 131.9909,64.416945 c 0,0 -0.29588,0.214219 -0.34944,0.45448"
         id="path6165-5-6-5-3"
         inkscape:connector-curvature="0"
         sodipodi:nodetypes="cc" />
      <path
         style="display:inline;fill:#371a19;fill-opacity:1;stroke:none;stroke-width:0.248556;stroke-miterlimit:4;stroke-dasharray:none;stroke-opacity:1;enable-background:new"
         d="m 89.03966,58.764046 0.45172,-2.30806 c 2.95762,-0.56086 4.94778,-2.70838 7.82614,-3.449881 0.3549,0.577961 -0.94202,0.0702 -1.3408,1.831441 1.12742,0.1154 3.10808,0.0916 4.62754,-0.23468 1.55274,-0.54304 2.36314,-1.34986 3.74386,-1.32378 -0.177,0.98866 -1.31898,1.24168 -0.042,1.34104 3.18548,-1.3367 5.01004,0.51902 7.9956,-1.19414 0.74142,0.69632 -1.2279,0.551379 -0.1376,1.18582 4.22903,-1.437861 7.83179,1.6967 9.92682,-2.59826 3.06385,-0.54032 3.28424,3.69884 4.9054,5.42206 1.28078,2.25268 2.67456,4.44134 4.1802,6.550499 0.34244,-2.720679 -0.1046,-5.472599 0.25646,-8.197019 0.193,-4.11574 0.43224,-2.50262 -1.02498,-6.455041 -1.49164,-1.7191 -2.13254,-1.23864 -3.14614,-2.54746 0.43052,-4.75578 -2.65598,-5.081 -6.715,-6.97558 -4.90421,-2.3322 -12.11638,-3.04306 -17.40326,-2.73988 -2.35102,0.46284 4.89568,0.9906 1.96585,1.04514 -4.76401,-0.25306 -6.38173,1.11896 -10.80847,3.03678 -1.80828,0.89162 4.00994,-0.76464 1.47,0.60984 -7.77144,2.29108 -7.59624,6.8204 -9.19854,7.46356 -1.78676,3.236501 -2.84196,7.280921 -2.45212,10.676521 0.50526,2.06398 0.90088,5.525801 1.47938,6.724541 1.2215,-2.587303 2.41944,-5.189001 3.43996,-7.863461 z"
         id="path7840-7"
         inkscape:connector-curvature="0"
         sodipodi:nodetypes="ccccccccccccccccccccccccc" />
      <path
         style="color:#000000;font-style:normal;font-variant:normal;font-weight:normal;font-stretch:normal;font-size:medium;line-height:normal;font-family:sans-serif;font-variant-ligatures:normal;font-variant-position:normal;font-variant-caps:normal;font-variant-numeric:normal;font-variant-alternates:normal;font-feature-settings:normal;text-indent:0;text-align:start;text-decoration:none;text-decoration-line:none;text-decoration-style:solid;text-decoration-color:#000000;letter-spacing:normal;word-spacing:normal;text-transform:none;writing-mode:lr-tb;direction:ltr;text-orientation:mixed;dominant-baseline:auto;baseline-shift:baseline;text-anchor:start;white-space:normal;shape-padding:0;clip-rule:nonzero;display:inline;overflow:visible;visibility:visible;opacity:1;isolation:auto;mix-blend-mode:normal;color-interpolation:sRGB;color-interpolation-filters:linearRGB;solid-color:#000000;solid-opacity:1;vector-effect:none;fill:#371a19;fill-opacity:1;fill-rule:nonzero;stroke:none;stroke-width:0.111962;stroke-linecap:butt;stroke-linejoin:miter;stroke-miterlimit:4;stroke-dasharray:none;stroke-dashoffset:0;stroke-opacity:1;color-rendering:auto;image-rendering:auto;shape-rendering:auto;text-rendering:auto;enable-background:accumulate"
         d="m 85.20734,66.671726 c -1.13948,2.20268 -0.0362,4.70988 -0.28946,7.05062 0.25916,5.256058 2.35082,10.966618 3.94096,16.037199 1.76384,3.672919 3.22644,5.484061 6.3342,7.889561 2.84958,2.000081 6.30838,4.232204 9.24138,6.091824 1.80266,0.45922 1.94906,-3.48896 3.38537,-1.09335 1.63111,-0.91186 1.98031,-0.22541 3.00437,0.39519 1.32036,0.51803 3.49704,-1.51737 5.04933,-2.07581 4.30509,-2.924114 6.61462,-4.627815 9.81065,-8.787234 1.60794,-3.317701 5.51104,-7.33356 5.87658,-10.898762 0.181,-4.635179 0.1948,-9.275738 0.42656,-13.90914 -2.78958,0.326343 -2.22454,4.338342 -3.82778,6.114643 -1.50644,3.523979 -5.59336,6.870559 -7.10903,10.390618 -2.41758,-0.80024 -2.35905,-3.909081 -3.63701,-5.736921 -1.88033,-2.485857 -5.49636,-3.079699 -8.27164,-1.846799 -1.76974,1.159901 -3.717,0.65288 -5.55234,-0.0358 -2.53958,-0.949399 -5.77504,-1.12358 -7.78068,1.02636 -1.6251,1.754619 -2.3887,4.400981 -4.63752,5.524399 -2.43286,-0.45272 -2.59728,-3.2943 -3.22556,-5.907978 -0.23992,-3.607739 -0.43976,-6.41986 -2.07696,-9.60542 l -0.2993,-0.350819 z m 29.31129,10.815478 c 2.41337,2.120001 1.95027,5.60142 3.65864,7.78592 1.54043,2.77136 -3.51111,5.446602 -5.73725,5.682761 -1.78255,1.504939 -4.14706,0.80514 -4.65454,-1.932181 0.21218,-1.985518 -2.69968,-1.862838 -2.07317,0.186 -0.99247,2.688621 -3.70079,2.874782 -5.44973,1.333942 -1.6616,-1.471142 -7.69994,-4.264721 -5.68514,-6.987641 1.69164,-1.563759 2.24472,-5.555761 4.69692,-6.188361 2.28322,0.65282 7.00637,3.005061 9.26325,1.50766 0.60007,-0.432758 5.22796,-1.37318 5.98102,-1.388158 z"
         id="path7948"
         inkscape:connector-curvature="0"
         sodipodi:nodetypes="cccccccccccccccccccccccccccccccc" />
    </g>
  </g>
</svg>
